<svg xmlns="http://www.w3.org/2000/svg" xmlns:xlink="http://www.w3.org/1999/xlink" width="288" height="164" viewBox="0 0 288 164">
  <defs>
    <rect id="exp_mr_green-a" width="288" height="164"/>
  </defs>
  <g fill="none" fill-rule="evenodd">
    <mask id="exp_mr_green-b" fill="#fff">
      <use xlink:href="#exp_mr_green-a"/>
    </mask>
    <use fill="#FFF" xlink:href="#exp_mr_green-a"/>
    <g mask="url(#exp_mr_green-b)">
      <g transform="translate(15 14)">
        <g transform="translate(71)">
          <g fill-rule="nonzero" transform="translate(115 51)">
            <path fill="#CB7A29" d="M37.2370255,82.214719 C36.3298123,82.214719 35.5946884,81.4797882 35.5946884,80.5728135 L35.5946884,74.2959495 C15.9542364,73.4339034 0.240778678,57.1898146 0.240778678,37.3455878 C0.240778678,16.9508935 16.8369697,0.359064093 37.2370255,0.359064093 C38.1442386,0.359064093 38.8793626,1.09399487 38.8793626,2.00096958 L38.8793626,11.7150596 C38.8793626,12.6220343 38.1442386,13.3569651 37.2370255,13.3569651 C36.3298123,13.3569651 35.5946884,12.6220343 35.5946884,11.7150596 L35.5946884,3.68268991 C17.7653743,4.54071794 3.52581828,19.3116577 3.52581828,37.3455878 C3.52581828,55.9288897 18.6488384,71.0479353 37.2370255,71.0479353 C38.1442386,71.0479353 38.8793626,71.7828661 38.8793626,72.6898408 L38.8793626,80.5728135 C38.879728,81.479423 38.1442386,82.214719 37.2370255,82.214719 Z"/>
            <path fill="#A75D26" d="M51.0282728,78.6459945 L23.4454128,78.6459945 C21.8049025,78.6459945 20.2988483,79.5522387 19.5312064,81.0016449 L16.6963024,86.3529053 L57.7773832,86.3529053 L54.9424792,81.0016449 C54.1748373,79.5522387 52.6687831,78.6459945 51.0282728,78.6459945 Z"/>
            <path fill="#CB7A29" d="M19.5312064 81.0016449L18.7376233 82.4996325 55.7360623 82.4996325 54.9424792 81.0016449C54.1748373 79.5522387 52.6687831 78.6459945 51.0282728 78.6459945L23.4454128 78.6459945C21.8049025 78.6459945 20.2988483 79.5522387 19.5312064 81.0016449zM37.2370255 74.3317463C36.3298123 74.3317463 35.5946884 73.5968155 35.5946884 72.6898408L35.5946884 64.1150396C35.5946884 63.2080649 36.3298123 62.4731341 37.2370255 62.4731341 38.1442386 62.4731341 38.8793626 63.2080649 38.8793626 64.1150396L38.8793626 72.6898408C38.879728 73.5968155 38.1442386 74.3317463 37.2370255 74.3317463z"/>
            <ellipse cx="37.237" cy="37.345" fill="#77CEE6" rx="29.771" ry="29.763"/>
            <g fill="#FFF" opacity=".3" transform="translate(7.307 7.305)">
              <path d="M.15857048 30.0397476C.15857048 45.146374 11.4192668 57.6157238 26.004828 59.5370637L25.2116102 54.3815901C25.069116 53.4497768 24.4819668 52.6355816 23.6430778 52.2041933L19.0872822 49.8649802C18.9911899 49.8163988 18.9268848 49.723254 18.9140969 49.6147677L18.4157325 45.2943098C18.2673924 44.0070851 17.2717598 42.9507135 15.9944271 42.7253396L8.00159796 41.3186704C7.87262243 41.2963887 7.77068427 41.1992259 7.74108932 41.0724759L7.10023074 38.2952996C7.07648171 38.1941187 7.09694241 38.1020698 7.15978601 38.0228054 7.19047707 37.9848169 7.27524286 37.8964206 7.40933357 37.8964206 7.43564019 37.8964206 7.46340829 37.9004386 7.49081102 37.9066483 7.71478269 37.9592477 7.94386954 37.986278 8.17222565 37.986278 9.54711209 37.986278 10.7283526 37.0511772 11.044032 35.7124489L11.2186788 34.9749612C11.2570426 34.8113186 11.4053827 34.7262098 11.5318007 34.7262098 11.5581073 34.7262098 11.5844139 34.7294973 11.6114513 34.7357069L15.446007 35.6773826C15.6769207 35.7340001 15.9144111 35.7628567 16.1511707 35.7628567 17.1526492 35.7628567 18.0770347 35.2620664 18.6236279 34.4230326L21.4113993 30.1467728C21.9886835 29.2602535 22.0471427 28.1257132 21.5633931 27.1854986L20.2699841 24.6713194C20.2012946 24.5379945 20.2385623 24.4254901 20.2816759 24.354627 20.3251549 24.2841292 20.4080939 24.1993857 20.5582608 24.1993857L22.6299074 24.1993857C23.401203 24.1993857 24.1304811 23.9038792 24.6854778 23.3669268L28.9427663 19.2393335C29.7041969 18.5011153 30.0114729 17.4034676 29.7440222 16.3755873L28.3336949 10.9717275C27.9949971 9.67208353 26.8203333 8.76474354 25.4768687 8.76474354L19.0014203 8.76474354C18.9020397 8.76474354 18.8063128 8.7179885 18.7460268 8.6401852L15.2439575 4.15425832C6.23759271 9.27137823.15857048 18.9427312.15857048 30.0397476zM55.3264828 21.4945336C55.9614955 20.801244 56.1302963 19.7952801 55.7550615 18.9306772L54.8460215 16.8402155 56.1909477 16.0157927C52.9026197 9.87444518 47.5218191 5.02616675 41.0014302 2.41190255L38.6221423 6.62898795 35.7035686 6.62898795C34.953099 6.62898795 34.2614541 6.97088418 33.805838 7.56664566 33.3502219 8.16313768 33.2026125 8.91925434 33.3995468 9.64359218L34.8577375 14.9882776C35.0564987 15.7188251 35.5976113 16.3167782 36.3046018 16.5885419L39.491357 17.8136701C39.7664804 17.9195994 40.0551225 17.9732947 40.3496106 17.9732947 40.8892617 17.9732947 41.4190479 17.7873704 41.8406846 17.4498574L44.0555561 15.6790103 47.2152739 16.8931802 49.0066819 19.7404891 47.7724628 22.9180054C47.487109 23.6525709 47.5824705 24.4799159 48.0278563 25.1301032 48.473242 25.7806557 49.2094621 26.1685765 49.9982954 26.1685765 50.6669221 26.1685765 51.3088768 25.8858546 51.7593777 25.3923698L55.3264828 21.4945336z"/>
              <path d="M59.7003243 30.0397476C59.7003243 26.9422263 59.2260743 23.9557481 58.3477254 21.1475235L50.9066047 28.7083248 45.6533181 26.461526C45.3248507 26.3208956 44.9770187 26.2500325 44.6196871 26.2500325 43.9152541 26.2500325 43.2532041 26.5250836 42.7552051 27.0255087L39.9944711 29.8034155C39.3130565 30.4883038 39.0627782 31.4884233 39.3419207 32.4143923L40.4519141 36.0923336C40.634599 36.7005144 41.0317559 37.22176 41.5688495 37.5585424L43.930965 39.0452066 41.5191592 40.7667417C40.7738049 41.2996761 40.3649561 42.1642791 40.4259728 43.078194L40.8326294 49.1830141C40.8793967 49.8865314 41.2151715 50.5524254 41.7533612 51.0097481L43.883467 52.8178532C43.0460395 54.8100562 42.4216225 56.2572708 41.9787944 57.2551986 52.4163126 52.6297372 59.7003243 42.1880219 59.7003243 30.0397476zM29.9296301.2768775C26.6873387.2768775 23.5692731.802141147 20.6470457 1.76025418 20.8450761 2.46559779 21.3058074 3.08437151 21.9693189 3.48325045L26.1710713 6.01094477C26.6303411 6.287457 27.1572043 6.43356649 27.6935671 6.43356649 28.090724 6.43356649 28.4776506 6.35539791 28.8452126 6.20015657L36.356119 3.01935279C37.1259531 2.69316333 37.6816805 2.0981324 37.9586308 1.38073476 35.4032346.666624587 32.7126516.2768775 29.9296301.2768775z"/>
            </g>
            <path fill="#7BC043" d="M7.46596588 37.3452226C7.46596588 51.9784541 18.0320943 64.1358602 31.9508556 66.6310452L31.2204815 61.8857739C31.1408309 61.3670852 30.8171133 60.9177985 30.3498053 60.6781789L25.7951058 58.3400617C25.3084332 58.0902144 24.9788697 57.6142627 24.9160261 57.0707354L24.4172964 52.7499123C24.3343574 52.0299577 23.7877642 51.4502683 23.0738317 51.3246141L15.0802719 49.9179449C14.4328367 49.8039795 13.9158384 49.3137821 13.768229 48.6734572L13.1270051 45.8959157C12.8537085 44.712794 13.918396 43.6542307 15.1003672 43.9340304 15.9812737 44.1426017 16.8643725 43.597248 17.0722679 42.7162077L17.2458185 41.9798158C17.45481 41.0936617 18.3466776 40.5479428 19.2312378 40.7652806L23.0665243 41.7069564C23.7424584 41.8727906 24.4494489 41.5937215 24.8294335 41.0107446L27.6172048 36.7348501C27.9383648 36.2420958 27.9708827 35.6149208 27.7016052 35.0914835L26.4081962 32.5773043C25.8473536 31.4873275 26.6391099 30.1906057 27.8649255 30.1906057L29.9365721 30.1906057C30.3625933 30.1906057 30.771442 30.0247714 31.0768912 29.7285344L35.3345451 25.6009411C35.758374 25.1900081 35.928271 24.5829231 35.7792001 24.0120003L34.3688728 18.6074099C34.1807074 17.8863595 33.5292531 17.3830123 32.7835334 17.3830123L26.3080849 17.3830123C25.8035093 17.3830123 25.3274325 17.1506982 25.0168682 16.7529151L21.4139569 12.1380466C13.0374895 17.4045635 7.46596588 26.7219662 7.46596588 37.3452226zM61.8574674 26.7606852L60.8651231 24.4780896C60.6517472 23.9875269 60.8322399 23.4147777 61.2885867 23.134978L62.8509078 22.1775955C59.7492839 16.9541809 55.0959345 12.7648563 49.5244108 10.2367967L47.0048209 14.7022683C46.8144633 15.039416 46.4571316 15.2483525 46.0698397 15.2483525L43.0105986 15.2483525C42.3028773 15.2483525 41.7888021 15.9211868 41.9751407 16.6038834L43.432966 21.9489341C43.522847 22.2784111 43.7643564 22.5454262 44.0833242 22.6681582L47.2715408 23.8940168C47.6277764 24.0309945 48.0296831 23.9685327 48.3274595 23.7303742L50.6501151 21.8725919C50.9478915 21.6344334 51.3497982 21.5719716 51.7060337 21.7089493L55.0685317 23.0016531C55.2848306 23.0849355 55.4686116 23.2357936 55.5917412 23.4319456L57.4902026 26.449472C57.6710606 26.7369424 57.70504 27.092719 57.5822758 27.4094114L56.3042123 30.6990667C56.0309157 31.402584 56.5501062 32.1608923 57.3045947 32.1608923 57.6060248 32.1608923 57.8932054 32.0345076 58.0967164 31.8120558L61.6652829 27.9127586C61.9510021 27.6004495 62.0266336 27.1489712 61.8574674 26.7606852zM51.1050005 63.6810944C60.559674 58.6943772 67.0077197 48.7753686 67.0077197 37.3452226 67.0077197 34.775887 66.6818099 32.2828937 66.0698155 29.9045963L59.1508082 36.9353854C58.7715544 37.3207492 58.1946355 37.4347146 57.6973672 37.22176L52.4437153 34.9745959C51.9486393 34.7627372 51.374278 34.8745109 50.9946588 35.2565873L48.2335594 38.0348594C47.8934002 38.3771209 47.7684437 38.8779112 47.9076496 39.3396172L49.017643 43.0197502C49.1093508 43.3232927 49.3073812 43.5833676 49.5755626 43.7521241L51.9384089 45.2387882C52.7290691 45.7362911 52.7623177 46.8766757 52.0019833 47.4194725L49.5916389 49.1399118C49.2211539 49.40437 49.0136239 49.841968 49.0439496 50.2963685L49.4509715 56.4004581C49.4747206 56.7547736 49.6405984 57.0842505 49.9109721 57.3140077L52.0407125 59.1239391C52.476964 59.494692 52.6238426 60.1039686 52.4020632 60.6317892 52.0809031 61.3977682 51.591673 62.5549554 51.1050005 63.6810944zM37.2370255 7.58235243C34.4558308 7.58235243 31.7670747 7.97173424 29.2135053 8.68511387 29.3125205 9.06792075 29.5536646 9.42223629 29.9537445 9.66331696L34.1558622 12.1913766C34.605267 12.4616791 35.15661 12.5007634 35.6392635 12.2962101L43.1501698 9.11577161C43.5480575 8.94738042 43.8206234 8.67452093 43.9795592 8.35855914 41.8125511 7.85630774 39.5574889 7.58235243 37.2370255 7.58235243z"/>
          </g>
          <g fill-rule="nonzero" transform="translate(.524)">
            <path fill="#F69B8A" d="M144.09384 78.484448L139.546555 81.1695899C137.889506 82.1253017 135.750998 81.55276 134.794478 79.8976029 133.837958 78.241954 134.410984 76.105252 136.06754 75.1495402L140.614825 72.4643984C142.271874 71.5086866 144.410383 72.0812283 145.366903 73.7363854 146.323915 75.3920343 145.750889 77.5287363 144.09384 78.484448zM137.34651 72.9469271L133.334837 76.3802098C131.869289 77.6089118 129.663829 77.416097 128.434088 75.9517872 127.204347 74.4874774 127.397325 72.2838805 128.862873 71.0551785L132.874546 67.6218959C134.340094 66.3931938 136.545554 66.5860086 137.775295 68.0503184 139.005036 69.5146282 138.812058 71.7182251 137.34651 72.9469271z"/>
            <path fill="#F8B3A0" d="M145.20297,82.1011998 L127.138873,82.1011998 C125.225833,82.1011998 124.740435,80.5370395 124.740435,78.625616 C124.740435,76.7137005 125.225833,75.1500321 127.138873,75.1500321 L145.20297,75.1500321 C147.116502,75.1500321 148.681493,76.7141924 148.681493,78.625616 C148.681493,80.5370395 147.11601,82.1011998 145.20297,82.1011998 Z"/>
            <path fill="#F8B3A0" d="M126.791316,68.6218763 L123.469834,68.6208926 C121.034966,68.6204007 118.699541,69.5849662 116.976033,71.303575 L100.949033,87.2845713 L80.0626356,66.4163119 C77.2511662,63.6072178 72.6708979,63.3484919 69.7299562,66.0218287 C66.5896368,68.8761753 66.5039783,73.7373691 69.4715038,76.7018956 L92.942917,100.153479 C95.149854,102.359043 98.0494434,103.461825 100.949033,103.461825 C103.849115,103.461825 106.748212,102.359535 108.955641,100.153479 L126.768178,82.3884544 C126.952787,82.2044934 127.20287,82.1011998 127.463784,82.1011998 L136.292025,82.1011998 C136.293009,82.1002161 136.293009,82.1002161 136.293994,82.0992323 L136.293994,78.1170179 C136.293994,72.8947884 132.017961,68.6218763 126.791316,68.6218763 Z"/>
            <path fill="#E9E1E2" d="M43.5283014,67.1462534 C39.9148912,64.0528559 34.4765611,64.4724247 31.3810402,68.083274 L17.5806684,84.1793688 L17.5806684,75.224797 L0.350510638,75.224797 L0.350510638,100.806688 C0.350510638,105.488839 3.19053293,109.563034 7.58520773,111.186711 C8.86467002,111.659402 10.1785926,111.889108 11.4743005,111.889108 C14.6303731,111.889108 17.6776496,110.5276 19.8388036,108.006744 L44.465622,79.2832519 C47.5616352,75.6728945 47.1422039,70.239159 43.5283014,67.1462534 Z"/>
            <path fill="#D3D3D3" d="M39.1991012 65.1777724C36.3644941 64.7562362 33.3836768 65.7478548 31.3815325 68.083274L17.5811607 84.1793688 17.5811607 110.021461C18.4042699 109.466627 19.1653506 108.793251 19.8397882 108.006744L40.1462676 84.3229961 39.1991012 65.1777724zM14.1346368 66.5874842L.350510638 66.5874842.350510638 75.224797 17.5806684 75.224797 17.5806684 70.0306043C17.5806684 68.1290183 16.0378308 66.5874842 14.1346368 66.5874842z"/>
            <path fill="#E9E1E2" d="M115.054132,73.193848 L101.757373,86.4788811 C101.372895,86.863035 100.749655,86.863035 100.365177,86.4788811 L81.0565696,67.187079 C77.6415523,63.7754388 71.9477236,63.6701777 68.5976886,67.1452697 C65.3490655,70.5151005 65.3874641,75.8780061 68.7133768,79.200617 L92.18479,102.6522 C94.6319647,105.097799 97.8466199,106.320107 101.060783,106.320107 C104.275438,106.320107 107.490585,105.097799 109.937268,102.6522 L125.340536,87.261945 C126.38813,86.2152365 126.38813,84.518762 125.340536,83.4725454 L115.054132,73.193848 Z"/>
            <path fill="#D3D3D3" d="M115.054132,73.193848 L109.226893,79.0161642 L121.410091,91.1890695 L125.341029,87.2614532 C126.38813,86.2147446 126.38813,84.5182702 125.341029,83.4715616 L115.054132,73.193848 Z"/>
            <ellipse cx="121.44" cy="85.72" fill="#FFF" rx="1.511" ry="1.51"/>
            <g transform="translate(27.568)">
              <path fill="#A46644" d="M48.40099,9.02195852 C49.7434654,6.62899002 50.2406786,4.23011903 50.4134724,2.52036394 C50.5454062,1.21197829 49.5101199,0.0811592605 48.1937358,0.0811592605 L29.0451231,0.0811592605 C15.9319884,0.0811592605 5.3014734,10.702693 5.3014734,23.8047489 L5.3014734,32.7484994 L52.7882805,32.7484994 L52.7882805,23.8047489 C52.7882805,18.7448379 51.1942447,14.0498977 48.4822179,10.1945869 C48.2380419,9.84732361 48.1932435,9.39233988 48.40099,9.02195852 Z"/>
              <path fill="#C53C3C" d="M29.0451231,56.7809862 L9.5858752,63.9564485 C4.11357709,65.9741169 0.478998386,71.1855252 0.478998386,77.0137439 L0.478998386,128.195725 C0.478998386,129.602977 1.6211117,130.744126 3.02955402,130.744126 L55.0611844,130.744126 C56.4696267,130.744126 57.6117401,129.602977 57.6117401,128.195725 L57.6117401,77.0137439 C57.6117401,71.1855252 53.9771614,65.9741169 48.5048632,63.9564485 L29.0451231,56.7809862 Z"/>
              <path fill="#7A1B1B" d="M24.7917356,94.8599274 C25.7142874,96.3355504 27.3043849,97.2160054 29.0451231,97.2160054 C30.7863536,97.2160054 32.376451,96.3345666 33.2985106,94.8589437 L51.6028456,65.5732394 C50.6551869,64.9180628 49.6203929,64.3676555 48.504371,63.9559567 L29.0451231,56.7809862 L9.5858752,63.9564485 C8.46985326,64.3681473 7.43555151,64.9180628 6.48740054,65.5737313 L24.7917356,94.8599274 Z" opacity=".5"/>
              <path fill="#E9E1E2" d="M27.6273272,93.0906556 C28.2820732,94.137856 29.8081729,94.137856 30.4629189,93.0906556 L48.6377816,64.0115385 C48.5924909,63.9943229 48.5501539,63.9731723 48.5048632,63.9564485 L29.0451231,56.7809862 L9.5858752,63.9564485 C9.5405845,63.9731723 9.49775525,63.9943229 9.45295684,64.0115385 L27.6273272,93.0906556 Z"/>
              <path fill="#14202D" d="M30.9665318,75.6517439 L33.8095078,70.8633475 L29.0451231,68.4507041 L24.2807383,70.8633475 L27.1237143,75.6517439 C27.3811821,76.085577 27.4289343,76.6123744 27.2531867,77.0855575 L23.6614372,86.7459689 L27.6273272,93.0911474 C28.2820732,94.1383478 29.8081729,94.1383478 30.4629189,93.0911474 L34.4288089,86.7459689 L30.8370595,77.0855575 C30.6613119,76.6123744 30.709064,76.085577 30.9665318,75.6517439 Z"/>
              <path fill="#D3D3D3" d="M29.0451231,53.6147912 C23.1445325,53.7146417 18.3471643,58.5645224 18.3471643,64.482754 L18.3471643,71.3734212 L18.3471643,71.4157224 C18.3511026,73.4068296 20.4477666,74.700459 22.2313341,73.812134 L28.4144993,70.7330008 C28.8117775,70.5352674 29.2789609,70.5352674 29.6757469,70.7330008 L35.8584197,73.812134 C37.6419872,74.700459 39.738159,73.4068296 39.7425896,71.4157224 L39.7425896,71.3734212 L39.7425896,64.482754 C39.7430819,58.5645224 34.9457137,53.7141499 29.0451231,53.6147912 Z"/>
              <path fill="#F69B8A" d="M29.0451231,69.3882165 C24.9768367,69.3882165 21.6484625,66.0626543 21.6484625,61.997805 L21.6484625,31.2900921 C21.6484625,27.2252428 24.9768367,23.8996807 29.0451231,23.8996807 C33.1134095,23.8996807 36.4417837,27.2252428 36.4417837,31.2900921 L36.4417837,61.997805 C36.4417837,66.0621624 33.1134095,69.3882165 29.0451231,69.3882165 Z"/>
              <g fill="#F69B8A" transform="translate(1.97 26.07)">
                <ellipse cx="47.476" cy="6.679" rx="6.579" ry="6.574"/>
                <ellipse cx="6.676" cy="6.679" rx="6.579" ry="6.574"/>
              </g>
              <path fill="#F8B3A0" d="M29.0451231,3.42147767 C17.8248443,3.42147767 8.64510858,12.5939497 8.64510858,23.804257 L8.64510858,47.076798 C8.64510858,49.4112334 10.1027799,51.4977642 12.2954406,52.3024706 L26.1627638,57.3928778 C28.0236209,58.0760912 30.0666253,58.0760912 31.9274823,57.3928778 L45.7948056,52.3024706 C47.9879585,51.4972724 49.4451376,49.4112334 49.4451376,47.076798 L49.4451376,23.804257 C49.4451376,12.5939497 40.2654018,3.42147767 29.0451231,3.42147767 Z"/>
              <g fill="#955639" transform="translate(17.23 21.642)">
                <path d="M7.01956627 3.92761633L2.25222776 3.92761633C1.24697113 3.92761633.424354171 3.10569437.424354171 2.10128704.424354171 1.0968797 1.24697113.274957737 2.25222776.274957737L7.01956627.274957737C8.0248229.274957737 8.84743986 1.0968797 8.84743986 2.10128704 8.84743986 3.10569437 8.0248229 3.92761633 7.01956627 3.92761633zM21.3781952 3.92761633L16.6108567 3.92761633C15.6056 3.92761633 14.7829831 3.10569437 14.7829831 2.10128704 14.7829831 1.0968797 15.6056.274957737 16.6108567.274957737L21.3781952.274957737C22.3834518.274957737 23.2060688 1.0968797 23.2060688 2.10128704 23.2060688 3.10569437 22.3834518 3.92761633 21.3781952 3.92761633z"/>
              </g>
              <g transform="translate(4.43 130.347)">
                <rect width="48.557" height="6.591" x=".336" y=".397" fill="#C53C3C"/>
                <rect width="48.557" height="6.591" x=".336" y=".397" fill="#7A1B1B" opacity=".5"/>
                <rect width="1.857" height="6.591" x="6.881" y=".397" fill="#C53C3C"/>
                <rect width="1.857" height="6.591" x="15.284" y=".397" fill="#C53C3C"/>
                <rect width="1.857" height="6.591" x="23.686" y=".397" fill="#C53C3C"/>
                <rect width="1.857" height="6.591" x="32.088" y=".397" fill="#C53C3C"/>
                <rect width="1.857" height="6.591" x="40.491" y=".397" fill="#C53C3C"/>
              </g>
              <path fill="#A46644" d="M46.3525704,9.84142112 C38.995293,1.02014731 29.114536,1.59809962 29.041677,1.60252649 C28.9693104,1.59809962 19.0880611,1.02063919 11.7307837,9.84142112 C4.34643037,18.6951586 8.64461629,23.8047489 8.64461629,23.8047489 L8.64461629,32.9373792 L16.4705539,9.88175481 C16.6413787,9.37905927 17.1799442,9.10262591 17.68848,9.25609069 L39.4452463,15.8383527 C40.3933973,16.1251154 41.3499172,15.4163245 41.3499172,14.4261815 L41.3499172,9.8551936 C41.3499172,9.71599317 41.5448641,9.68402134 41.5896625,9.81584365 L49.4382455,32.9373792 L49.4382455,23.8047489 C49.4387378,23.8047489 53.7369237,18.6951586 46.3525704,9.84142112 Z"/>
              <g transform="translate(16.246 39.35)">
                <path fill="#8E2524" d="M21.0650986,0.0521386765 C20.0982406,0.0521386765 19.210149,0.38956445 18.5120815,0.952268657 L18.5115892,0.951776782 C18.5115892,0.951776782 15.9570952,3.02453511 12.7995458,3.02453511 C9.64199628,3.02453511 7.08750232,0.951776782 7.08750232,0.951776782 L7.08701003,0.952268657 C6.38845021,0.38956445 5.50085094,0.0521386765 4.53399294,0.0521386765 C2.28521121,0.0521386765 0.462260518,1.87354923 0.462260518,4.12043106 C0.462260518,5.24190448 0.916152102,6.25713305 1.65064911,6.99297701 C5.50429697,11.0110982 12.8000381,10.9663377 12.8000381,10.9663377 C12.8000381,10.9663377 20.0957791,11.0110982 23.949427,6.99297701 C24.683924,6.25713305 25.1378156,5.24190448 25.1378156,4.12043106 C25.1373233,1.87354923 23.3143726,0.0521386765 21.0650986,0.0521386765 Z"/>
                <path fill="#FFF" d="M18.5120815,0.952268657 C18.5115892,0.951776782 15.9570952,3.02453511 12.7995458,3.02453511 C9.64199628,3.02453511 7.08750232,0.951776782 7.08750232,0.951776782 L7.08701003,0.952268657 C6.38845021,0.38956445 5.50085094,0.0521386765 4.53399294,0.0521386765 C4.38187526,0.0521386765 4.23172675,0.060992414 4.08403968,0.0772242661 C4.01314989,0.283811475 3.97327438,0.504171164 3.97327438,0.733876465 L3.97327438,3.46230324 C3.97327438,4.58771165 4.89484167,5.50850035 6.0212017,5.50850035 L19.5778898,5.50850035 C20.7042499,5.50850035 21.6258171,4.58771165 21.6258171,3.46230324 L21.6258171,0.733876465 C21.6258171,0.504171164 21.5854493,0.283811475 21.5150518,0.0772242661 C21.3673648,0.060992414 21.2172163,0.0521386765 21.0650986,0.0521386765 C20.0982406,0.0521386765 19.2106413,0.38956445 18.5120815,0.952268657 Z"/>
                <path fill="#C53C3C" d="M12.7995458,10.9663377 C12.7995458,10.9663377 16.0348771,10.984537 19.3346985,9.81092491 C17.9365942,7.68750353 15.5332334,6.28369426 12.7995458,6.28369426 C10.0658582,6.28369426 7.6624973,7.68750353 6.26439307,9.81092491 C9.56421443,10.984537 12.7995458,10.9663377 12.7995458,10.9663377 Z"/>
              </g>
              <g transform="translate(19.692 26.561)">
                <path fill="#F69B8A" d="M7.71664922,12.6293647 L10.9903792,12.6293647 C11.8356415,12.6293647 12.5209095,11.9446757 12.5209095,11.1001275 L12.5209095,1.65171392 C12.5209095,0.807165736 11.8356415,0.122476702 10.9903792,0.122476702 L7.71664922,0.122476702 C6.87138691,0.122476702 6.18611893,0.807165736 6.18611893,1.65171392 L6.18611893,11.1001275 C6.18611893,11.9446757 6.87138691,12.6293647 7.71664922,12.6293647 Z"/>
                <g fill="#E48C7F">
                  <path d="M16.5325825 9.98849154C17.5230704 9.98849154 18.3333801 9.17886643 18.3333801 8.18921532L18.3333801 1.92224479C18.3333801.932593684 17.5230704.122968577 16.5325825.122968577 15.5420946.122968577 14.7317849.932593684 14.7317849 1.92224479L14.7317849 8.18921532C14.7317849 9.17886643 15.5420946 9.98849154 16.5325825 9.98849154zM2.17444591 9.98849154C3.16493383 9.98849154 3.97524354 9.17886643 3.97524354 8.18921532L3.97524354 1.92224479C3.97524354.932593684 3.16493383.122968577 2.17444591.122968577 1.18395798.122968577.373648278.932593684.373648278 1.92224479L.373648278 8.18921532C.373155988 9.17886643 1.18395798 9.98849154 2.17444591 9.98849154z"/>
                </g>
              </g>
            </g>
            <rect width="13.147" height="7.859" x=".351" y="58.728" fill="#F8B3A0"/>
            <path fill="#F8B3A0" d="M20.7721859,44.9371447 L4.44833444,44.9371447 C2.18527629,44.9371447 0.350510638,46.7703603 0.350510638,49.0315065 L0.350510638,63.1364941 L15.9969708,63.1364941 C18.6341695,63.1364941 20.7721859,61.000284 20.7721859,58.3653133 L20.7721859,44.9371447 Z"/>
            <path fill="#F8B3A0" d="M17.4329813,58.7278247 C15.6051077,58.7278247 14.1090378,57.2335105 14.1090378,55.4066893 L14.1090378,37.7233162 C14.1090378,35.8969869 15.6046154,34.4021808 17.4329813,34.4021808 C19.2608549,34.4021808 20.7569249,35.896495 20.7569249,37.7233162 L20.7569249,55.4066893 C20.7564326,57.2335105 19.2608549,58.7278247 17.4329813,58.7278247 Z"/>
            <path fill="#F69B8A" d="M19.9313542,58.7278247 L14.7352309,58.7278247 C12.8029918,58.7278247 11.2217556,57.1479244 11.2217556,55.2173177 C11.2217556,53.2867111 12.8029918,51.7068108 14.7352309,51.7068108 L19.9313542,51.7068108 C21.8635933,51.7068108 23.4448295,53.2867111 23.4448295,55.2173177 C23.4448295,57.1484163 21.8635933,58.7278247 19.9313542,58.7278247 Z"/>
            <ellipse cx="13.603" cy="70.906" fill="#FFF" rx="1.511" ry="1.51"/>
          </g>
        </g>
        <g fill-rule="nonzero" transform="translate(0 137.201)">
          <path fill="#FDCD8D" d="M0.424814701,2.2930396 L0.424814701,9.97168939 C0.424814701,11.1834039 1.40887308,12.1653846 2.62208263,12.1653846 L254.96058,12.1653846 C256.174268,12.1653846 257.157848,11.1834039 257.157848,9.97168939 L257.157848,2.2930396 C257.157848,1.08132507 256.173789,0.0993443526 254.96058,0.0993443526 L2.62208263,0.0993443526 C1.40839468,0.0993443526 0.424814701,1.08132507 0.424814701,2.2930396 Z"/>
          <g fill="#E5A258" opacity=".5">
            <path d="M.424814701 3.69580096L.424814701 6.49415944C8.44606254 6.04185606 21.7162596 6.55624966 37.0387709 12.1653846L44.3496023 12.1653846C25.930919 3.93938567 9.83388625 3.14749656.424814701 3.69580096zM68.7735772 8.86887156C73.1437149 8.72606405 77.2249021 8.41895627 81.1707035 8.12187844 94.017521 7.15565909 104.692904 6.35851618 115.520416 12.1653846L120.811943 12.1653846C107.950295 3.36576756 95.8607767 4.26798623 80.9649937 5.38752066 77.0469392 5.6822104 72.9958909 5.9869301 68.6836389 6.12782713 56.3731021 6.53141357 45.7082439 3.1264814 38.7724741.0993443526L32.418911.0993443526C38.5911625 3.4340668 52.0890755 9.41096694 68.7735772 8.86887156zM128.560027 12.1653846L132.304903 12.1653846C127.524781 6.61595179 121.916557 2.76492528 116.551358.0993443526L109.36443.0993443526C115.446265 2.3097562 122.573393 6.00794525 128.560027 12.1653846zM164.100465.0993443526C154.777505 2.48456405 144.684328 3.53866494 135.752217 1.08992218 134.661955.790933884 133.653498.456124311 132.722541.0993443526L126.532111.0993443526C128.583947 1.37553719 131.292141 2.68277514 134.760982 3.66093492 138.547957 4.72888671 142.644931 5.26190737 147.042815 5.26190737 154.944465 5.26190737 163.816299 3.53197831 173.57699.0993443526L164.100465.0993443526zM212.157628.0993443526C204.760686 3.37675275 194.494809 3.44314153 184.695845 3.06725689 169.860819 2.49937018 160.010188 7.66670937 154.310591 12.1653846L159.124679 12.1653846C164.243027 8.92761846 172.672346 5.3607741 184.590599 5.80734607 193.745164 6.15648416 208.500777 6.71195282 217.563491.0993443526L212.157628.0993443526zM222.488567.0993443526C219.449324 5.70656887 214.266871 9.60774518 209.621657 12.1653846L214.87826 12.1653846C219.809555 8.75185537 223.430048 4.6672741 225.56943.0993443526L222.488567.0993443526zM257.158326 6.13164807C239.100831 3.23394525 227.21176 8.12140083 220.861546 12.1658623L226.676436 12.1658623C227.152439 11.9452032 227.641359 11.7264545 228.154198 11.5129597 234.143224 9.0212314 243.835505 6.71863946 257.157848 8.9147228L257.157848 6.13164807 257.158326 6.13164807z"/>
          </g>
        </g>
        <g transform="translate(5 108)">
          <g fill-rule="nonzero" transform="translate(6.276 15.584)">
            <path fill="#FAA519" d="M2.70662983,14.1038961 L34.8331492,14.1038961 L34.8331492,0.038961039 L2.70662983,0.038961039 C1.29447514,0.038961039 0.196132597,1.16883117 0.196132597,2.53246753 L0.196132597,11.5714286 C0.196132597,12.974026 1.33370166,14.1038961 2.70662983,14.1038961 Z"/>
            <path fill="#FBC01A" d="M25.8110497,11.5714286 L25.8110497,2.53246753 C25.8110497,1.12987013 26.9486188,0.038961039 28.321547,0.038961039 L22.9867403,0.038961039 C21.5745856,0.038961039 20.4762431,1.16883117 20.4762431,2.53246753 L20.4762431,11.5714286 C20.4762431,12.974026 21.6138122,14.0649351 22.9867403,14.0649351 L28.321547,14.0649351 C26.9486188,14.1038961 25.8110497,12.974026 25.8110497,11.5714286 Z"/>
            <rect width="28.322" height="10.403" x="34.598" y="1.987" fill="#FFF"/>
            <path fill="#FBC01A" d="M63.2723757,14.1038961 L34.8331492,14.1038961 C33.5779006,14.1038961 32.5972376,13.0909091 32.5972376,11.8831169 L32.5972376,2.2987013 C32.5972376,1.05194805 33.6171271,0.0779220779 34.8331492,0.0779220779 L63.2723757,0.0779220779 C63.978453,0.0779220779 64.5668508,0.662337662 64.5668508,1.36363636 C64.5668508,2.06493506 63.978453,2.64935065 63.2723757,2.64935065 L35.2254144,2.64935065 L35.2254144,11.4935065 L63.2723757,11.4935065 C63.978453,11.4935065 64.5668508,12.0779221 64.5668508,12.7792208 C64.5668508,13.5194805 63.978453,14.1038961 63.2723757,14.1038961 Z"/>
            <path fill="#EDEBF0" d="M62.5270718 6.15584416L41.4232044 6.15584416C40.9917127 6.15584416 40.638674 5.80519481 40.638674 5.37662338 40.638674 4.94805195 40.9917127 4.5974026 41.4232044 4.5974026L62.5270718 4.5974026C62.9585635 4.5974026 63.3116022 4.94805195 63.3116022 5.37662338 63.2723757 5.80519481 62.9585635 6.15584416 62.5270718 6.15584416zM54.1718232 9.42857143L40.2464088 9.42857143C39.8149171 9.42857143 39.4618785 9.07792208 39.4618785 8.64935065 39.4618785 8.22077922 39.8149171 7.87012987 40.2464088 7.87012987L54.1718232 7.87012987C54.6033149 7.87012987 54.9563536 8.22077922 54.9563536 8.64935065 54.9563536 9.07792208 54.6033149 9.42857143 54.1718232 9.42857143z"/>
          </g>
          <g fill-rule="nonzero">
            <path fill="#51AF13" d="M55.3878453,0.0779220779 L26.438674,0.0779220779 C30.518232,0.0779220779 34.1270718,3.07792208 34.519337,7.12987013 C34.9508287,11.7272727 31.3027624,15.6233766 26.7917127,15.6623377 L55.3878453,15.6623377 C59.7027624,15.6623377 63.2331492,12.1558442 63.2331492,7.87012987 C63.2331492,3.58441558 59.7027624,0.0779220779 55.3878453,0.0779220779 Z"/>
            <path fill="#78C802" d="M58.8790055,7.12987013 C58.4867403,3.07792208 54.8779006,0.0779220779 50.7983425,0.0779220779 L47.5033149,0.0779220779 C51.5828729,0.0779220779 55.1917127,3.07792208 55.5839779,7.12987013 C56.0154696,11.7272727 52.3674033,15.6233766 47.8563536,15.6623377 L51.1513812,15.6623377 C55.7016575,15.6233766 59.3104972,11.6883117 58.8790055,7.12987013 Z"/>
            <path fill="#FFF" d="M26.9093923,12.9350649 C29.7337017,12.9350649 32.0480663,10.6363636 32.0480663,7.83116883 C32.0480663,5.02597403 29.7337017,2.72727273 26.9093923,2.72727273 L2.31436464,2.72727273 L2.31436464,12.8961039 L26.9093923,12.8961039 L26.9093923,12.9350649 Z"/>
            <path fill="#78C802" d="M26.9093923,12.9350649 C29.9298343,12.9350649 32.3618785,10.2857143 32.0088398,7.20779221 C31.6950276,4.63636364 29.3414365,2.76623377 26.7132597,2.76623377 C20.6331492,2.76623377 5.92320442,2.76623377 1.37292818,2.76623377 C0.627624309,2.76623377 2.84217094e-14,2.14285714 2.84217094e-14,1.4025974 C2.84217094e-14,0.662337662 0.627624309,0.038961039 1.37292818,0.038961039 L26.6348066,0.038961039 C30.7143646,0.038961039 34.3232044,3.03896104 34.7154696,7.09090909 C35.1469613,11.7272727 31.4596685,15.6233766 26.9093923,15.6233766 L1.37292818,15.6233766 C0.627624309,15.6233766 5.07194041e-14,15 5.07194041e-14,14.2597403 C5.07194041e-14,13.5194805 0.627624309,12.8961039 1.37292818,12.8961039 L26.9093923,12.8961039 L26.9093923,12.9350649 Z"/>
            <path fill="#EDEBF0" d="M17.7696133 6.8961039L3.8441989 6.8961039C3.41270718 6.8961039 3.05966851 6.54545455 3.05966851 6.11688312 3.05966851 5.68831169 3.41270718 5.33766234 3.8441989 5.33766234L17.7696133 5.33766234C18.201105 5.33766234 18.5541436 5.68831169 18.5541436 6.11688312 18.5541436 6.54545455 18.201105 6.8961039 17.7696133 6.8961039zM24.6342541 10.2467532L3.88342541 10.2467532C3.4519337 10.2467532 3.09889503 9.8961039 3.09889503 9.46753247 3.09889503 9.03896104 3.4519337 8.68831169 3.88342541 8.68831169L24.6342541 8.68831169C25.0657459 8.68831169 25.4187845 9.03896104 25.4187845 9.46753247 25.379558 9.8961039 25.0265193 10.2467532 24.6342541 10.2467532z"/>
            <g transform="translate(10.199 8.571)">
              <path fill="#EF4849" d="M6.43314917,9.46753247 L4.39337017,8.33766234 C4.19723757,8.22077922 3.92265193,8.22077922 3.72651934,8.33766234 L1.68674033,9.46753247 C1.0198895,9.85714286 0.196132597,9.35064935 0.196132597,8.57142857 L0.196132597,0.116883117 L7.96298343,0.116883117 L7.96298343,8.57142857 C7.92375691,9.35064935 7.1,9.81818182 6.43314917,9.46753247 Z"/>
              <rect width="7.767" height="1.519" x=".157" y=".117" fill="#DC3D3E"/>
            </g>
          </g>
        </g>
      </g>
    </g>
  </g>
</svg>
