<svg xmlns="http://www.w3.org/2000/svg" xmlns:xlink="http://www.w3.org/1999/xlink" width="288" height="164" viewBox="0 0 288 164">
  <defs>
    <rect id="exp_fun_book-a" width="288" height="164"/>
  </defs>
  <g fill="none" fill-rule="evenodd">
    <mask id="exp_fun_book-b" fill="#fff">
      <use xlink:href="#exp_fun_book-a"/>
    </mask>
    <use fill="#FFF" xlink:href="#exp_fun_book-a"/>
    <g mask="url(#exp_fun_book-b)">
      <g transform="translate(56 9)">
        <g transform="translate(0 81)">
          <rect width="34.45" height="88.36" x="25.469" y=".435" fill="#975E3A" rx="17.225" transform="rotate(42 42.694 44.615)"/>
          <rect width="34.45" height="88.36" x="115.469" y=".435" fill="#975E3A" rx="17.225" transform="scale(-1 1) rotate(42 0 -301.064)"/>
        </g>
        <path fill="#A56841" d="M87.8550949,72.1958049 L87.8550949,72.1958049 C113.538261,72.1958049 134.358581,93.0161249 134.358581,118.699291 L134.358581,155.948185 C134.358581,181.631352 113.538261,202.451672 87.8550949,202.451672 L87.8550949,202.451672 C62.1719286,202.451672 41.3516086,181.631352 41.3516086,155.948185 L41.3516086,118.699291 C41.3516086,93.0161249 62.1719286,72.1958049 87.8550949,72.1958049 Z"/>
        <g transform="translate(49)">
          <ellipse cx="66.548" cy="11.415" fill="#A56841" rx="9.559" ry="9.583"/>
          <ellipse cx="9.809" cy="11.415" fill="#A56841" rx="9.559" ry="9.583"/>
          <path fill="#A56841" stroke="#A56841" stroke-linejoin="round" stroke-width="1.855" d="M28.8954392,19.9327869 C30.5979082,15.5867515 34.7884354,12.513432 39.6881222,12.513432 C44.5878089,12.513432 48.7783361,15.5867515 50.4808051,19.9327869 L28.8954392,19.9327869 Z" transform="rotate(-80 39.688 16.223)"/>
          <path fill="#A56841" stroke="#A56841" stroke-linejoin="round" stroke-width="1.855" d="M26.8081448,14.7816181 C28.5106138,10.4355827 32.701141,7.36226323 37.6008277,7.36226323 C42.5005145,7.36226323 46.6910417,10.4355827 48.3935106,14.7816181 L26.8081448,14.7816181 Z" transform="rotate(57 37.6 11.072)"/>
          <rect width="73.39" height="108.817" x="2.1" y="8.015" fill="#A56841" rx="24.731"/>
          <rect width="24.669" height="24.113" x="47.121" y="13.579" fill="#B8764C" rx="8.656"/>
          <rect width="5.551" height="8.656" x="56.372" y="22.235" fill="#714B33" rx="2.775"/>
          <rect width="24.669" height="24.113" x="13.201" y="13.579" fill="#B8764C" rx="8.656"/>
          <rect width="5.551" height="8.656" x="23.069" y="22.235" fill="#714B33" rx="2.775"/>
          <path fill="#CE9969" stroke="#CE9969" stroke-linejoin="round" stroke-width="1.855" d="M36.802464,70.2677756 C38.1050687,66.9743085 41.3113536,64.6453177 45.0602354,64.6453177 C48.8091173,64.6453177 52.0154021,66.9743085 53.3180068,70.2677756 L36.802464,70.2677756 Z" transform="rotate(109 45.06 67.457)"/>
          <path stroke="#B8764C" stroke-width="3.71" d="M21.2186411,29.7025695 C24.7138161,29.3934297 26.7695653,30.5784655 27.3858885,33.257677"/>
          <path fill="#CE9969" d="M40.988039,38.9287931 L46.4717039,38.9287931 C53.6424979,38.9287931 59.4555749,44.7418701 59.4555749,51.912664 L59.4555749,67.0605135 C59.4555749,69.7922445 57.2410694,72.00675 54.5093384,72.00675 L27.3858885,72.00675 L27.3858885,52.5309436 C27.3858885,45.0186833 33.4757787,38.9287931 40.988039,38.9287931 Z" transform="matrix(1 0 0 -1 0 110.936)"/>
          <path fill="#B15249" d="M40.3374091,45.6085132 L40.5711775,45.6085132 C45.6832753,45.6085132 50.3195843,48.6082461 52.4146262,53.2713291 L54.5681438,58.0645655 C55.2678432,59.621936 54.5725634,61.4516527 53.0151929,62.1513521 C52.5520821,62.3594197 52.0448541,62.4502243 51.538322,62.4157435 L31.7029617,61.0655025 L31.7029617,54.2429607 C31.7029617,49.474287 35.5687355,45.6085132 40.3374091,45.6085132 Z" transform="matrix(1 0 0 -1 0 108.032)"/>
          <path fill="#CE5C51" d="M31.7809126,54.9541708 C33.4227278,53.8159518 35.4146217,53.1492232 37.5618467,53.1492232 C42.201782,53.1492232 46.116401,56.2625008 47.340649,60.5190473 C45.3421928,61.7402079 43.0108672,62.4234167 40.5711775,62.4234167 L40.3374091,62.4234167 C35.9638981,62.4234167 32.3498469,59.1717824 31.7809126,54.9541708 Z"/>
          <path fill="#E5AE7C" d="M38.9786304,25.3266425 L59.580603,25.3266425 C65.9830976,25.3266425 71.1733449,30.5168899 71.1733449,36.9193845 L71.1733449,43.5658898 C71.1733449,46.2976209 68.9588394,48.5121264 66.2271084,48.5121264 L36.0418025,48.5121264 C31.2612732,48.5121264 27.3858885,44.6367417 27.3858885,39.8562124 L27.3858885,36.9193845 C27.3858885,30.5168899 32.5761359,25.3266425 38.9786304,25.3266425 Z"/>
          <path fill="#5F3F2A" d="M53.9174909,25.3266425 L58.8264115,25.3266425 C61.5581425,25.3266425 63.7726481,27.5411481 63.7726481,30.2728791 L63.7726481,34.6008361 C63.7726481,35.6252352 62.9422085,36.4556748 61.9178094,36.4556748 L50.8260931,36.4556748 C49.8016939,36.4556748 48.9712544,35.6252352 48.9712544,34.6008361 L48.9712544,30.2728791 C48.9712544,27.5411481 51.1857599,25.3266425 53.9174909,25.3266425 Z"/>
          <rect width="4.317" height="6.801" x="54.522" y="31.509" fill="#5F3F2A" rx="2.159"/>
          <path fill="#FFF" d="M40.337108 48.2029866L46.5043554 48.2029866 46.5043554 50.0655995C46.5043554 51.7686378 45.12377 53.1492232 43.4207317 53.1492232L43.4207317 53.1492232C41.7176934 53.1492232 40.337108 51.7686378 40.337108 50.0655995L40.337108 48.2029866zM57.6054007 48.2029866L63.7726481 48.2029866 63.7726481 50.0655995C63.7726481 51.7686378 62.3920627 53.1492232 60.6890244 53.1492232L60.6890244 53.1492232C58.9859861 53.1492232 57.6054007 51.7686378 57.6054007 50.0655995L57.6054007 48.2029866z"/>
        </g>
        <rect width="65.45" height="53.728" x="53.407" y="99.486" fill="#B8764C" rx="26.864"/>
        <rect width="38.581" height="33.752" x="67.187" y="135.305" fill="#B8764C" rx="16.876"/>
        <path fill="#B8764C" stroke="#B8764C" stroke-linejoin="round" stroke-width="1.859" d="M75.6791816,107.692729 C77.4180186,103.254327 81.6980638,100.11569 86.7024176,100.11569 C91.7067714,100.11569 95.9868165,103.254327 97.7256536,107.692729 L75.6791816,107.692729 Z" transform="rotate(57 86.702 103.904)"/>
        <path fill="#B8764C" stroke="#B8764C" stroke-linejoin="round" stroke-width="1.859" d="M75.6791816,107.692729 C77.4180186,103.254327 81.6980638,100.11569 86.7024176,100.11569 C91.7067714,100.11569 95.9868165,103.254327 97.7256536,107.692729 L75.6791816,107.692729 Z" transform="scale(-1 1) rotate(57 0 -55.782)"/>
      </g>
    </g>
    <g mask="url(#exp_fun_book-b)">
      <g transform="translate(83 110)">
        <path fill="#FFF7DE" d="M61.0057352,2.52340485 L82.062715,1.85644616 C82.2182133,1.85152091 82.3733951,1.87347088 82.5214272,1.92132955 L111.206964,11.1953399 C115.113115,12.4581952 117.759709,16.0953085 117.759709,20.2005267 L117.759709,45.685133 L61.0057352,45.685133 L61.0057352,2.52340485 Z" transform="matrix(-1 0 0 1 178.765 0)"/>
        <path fill="#FFF7DE" d="M4.25176118,2.52340485 L25.308741,1.85644616 C25.4642393,1.85152091 25.6194211,1.87347088 25.7674532,1.92132955 L54.4529902,11.1953399 C58.3591409,12.4581952 61.0057352,16.0953085 61.0057352,20.2005267 L61.0057352,45.685133 L4.25176118,45.685133 L4.25176118,2.52340485 Z"/>
        <g transform="translate(72.965 .855)">
          <path fill="#FFC733" d="M1.96243905,11.8996557 L41.2651323,0.690932946 C43.7783683,-0.025816051 46.3967885,1.43052444 47.1135375,3.94376047 C47.2339127,4.36584858 47.2949783,4.80263185 47.2949783,5.24154933 L47.2949783,68.9099029 C47.2949783,71.0235244 45.8932892,72.8808486 43.86071,73.4605193 L0,85.9691414 L1.77635684e-15,14.5000079 C1.09208226e-15,13.2922242 0.800965241,12.2308961 1.96243905,11.8996557 Z"/>
          <path fill="#FAB615" d="M11.8237446,9.08731308 L12.1615659,9.08731308 L12.1615659,82.5007882 L0,85.9691414 L1.77635684e-15,14.5000079 C1.09208226e-15,13.2922242 0.800965241,12.2308961 1.96243905,11.8996557 L11.8237446,9.08731308 Z"/>
        </g>
        <g transform="matrix(-1 0 0 1 48.37 .855)">
          <path fill="#FFC733" d="M1.96243905,11.8996557 L41.2651323,0.690932946 C43.7783683,-0.025816051 46.3967885,1.43052444 47.1135375,3.94376047 C47.2339127,4.36584858 47.2949783,4.80263185 47.2949783,5.24154933 L47.2949783,68.9099029 C47.2949783,71.0235244 45.8932892,72.8808486 43.86071,73.4605193 L0,85.9691414 L1.77635684e-15,14.5000079 C1.09208226e-15,13.2922242 0.800965241,12.2308961 1.96243905,11.8996557 Z"/>
          <path fill="#FAB615" d="M11.8237446,9.08731308 L12.1615659,9.08731308 L12.1615659,82.5007882 L0,85.9691414 L1.77635684e-15,14.5000079 C1.09208226e-15,13.2922242 0.800965241,12.2308961 1.96243905,11.8996557 L11.8237446,9.08731308 Z"/>
        </g>
        <g transform="translate(48.143 13.983)">
          <path fill="#FFBA01" d="M24.9987743,0.012655271 L24.9987743,71.8364686 C24.9987743,75.5699586 21.9721826,78.5965503 18.2386925,78.5965503 L6.76008172,78.5965503 C3.02659168,78.5965503 4.57220663e-16,75.5699586 0,71.8364686 L0,0.012655271 C-4.30957757e-16,3.74614531 3.02659168,6.77273699 6.76008172,6.77273699 L18.2386925,6.77273699 C21.9721826,6.77273699 24.9987743,3.74614531 24.9987743,0.012655271 Z"/>
          <path fill="#FFC11A" d="M3.78793516,0.0287169659 L3.78793516,71.8364686 C3.78793516,74.5035508 2.24340408,76.8098885 6.32827124e-15,77.9098235 L0,6.08601021 C2.23889945,4.98828378 3.78172968,2.68899464 3.78791649,0.0287169663 L3.78793516,0.0287169659 Z" transform="matrix(-1 0 0 1 3.788 0)"/>
          <path fill="#F9B008" d="M24.9987743,0.0287169659 L24.9987743,71.8364686 C24.9987743,74.5035508 23.4542432,76.8098885 21.2108391,77.9098235 L21.2108391,6.08601021 C23.4497386,4.98828378 24.9925688,2.68899464 24.9987556,0.0287169663 L24.9987743,0.0287169659 Z"/>
        </g>
      </g>
    </g>
    <g fill="#975E3A" mask="url(#exp_fun_book-b)">
      <g transform="translate(56 129)">
        <rect width="40" height="36" x="7.071" y="7.923" rx="18" transform="scale(-1 1) rotate(30 0 -75.105)"/>
        <rect width="40" height="36" x="129.071" y="7.923" rx="18" transform="rotate(30 149.07 25.923)"/>
      </g>
    </g>
  </g>
</svg>
