<svg xmlns="http://www.w3.org/2000/svg" xmlns:xlink="http://www.w3.org/1999/xlink" width="288" height="164" viewBox="0 0 288 164">
  <defs>
    <rect id="exp_teacher_female-a" width="288" height="164"/>
  </defs>
  <g fill="none" fill-rule="evenodd">
    <mask id="exp_teacher_female-b" fill="#fff">
      <use xlink:href="#exp_teacher_female-a"/>
    </mask>
    <use fill="#FFF" xlink:href="#exp_teacher_female-a"/>
    <g mask="url(#exp_teacher_female-b)">
      <g transform="translate(98 16)">
        <path fill="#F55" d="M26.5297249,0.34388017 C40.8772517,0.34388017 52.5077024,11.9559799 52.5077024,26.2808685 L52.5077024,59.5563404 C52.5077024,64.225842 48.7164712,68.0110912 44.0404028,68.0110912 L9.01904711,68.0110912 C4.34297867,68.0110912 0.551747506,64.225842 0.551747506,59.5563404 L0.551747506,26.2808685 C0.551747506,11.9559799 12.1821982,0.34388017 26.5297249,0.34388017" transform="translate(20.195 111.47)"/>
        <path fill="#FFB5A1" d="M40.5483372 87.8141214L17.3581254 114.999609C14.9294949 117.847064 10.6084989 118.192653 7.75654401 115.767854 4.90458915 113.343056 4.55845446 109.028878 6.98708497 106.181423L30.1772968 78.9951235C32.6067399 76.1484799 36.9269233 75.8020801 39.7788782 78.2276898 42.6308331 80.6524883 42.9769677 84.9666665 40.5483372 87.8141214M77.057312 116.936279L48.2485053 88.1729284C45.5996811 85.5282837 45.5996811 81.2003144 48.2485053 78.5556697 50.8973295 75.9110249 55.2321383 75.9110249 57.8809625 78.5556697L86.6897692 107.319021C89.3385934 109.963665 89.3385934 114.291635 86.6897692 116.936279 84.040945 119.580924 79.7061361 119.580924 77.057312 116.936279"/>
        <path fill="#FF9D8A" d="M36.7837935,110.279038 L28.6285027,118.421461 C27.0262078,120.021227 24.4285726,120.021227 22.8262777,118.421461 C21.2239828,116.821694 21.2239828,114.227346 22.8262777,112.628391 L30.980756,104.485156 C32.5838634,102.886201 35.1814987,102.886201 36.7837935,104.485156 C38.3860884,106.085734 38.3860884,108.679271 36.7837935,110.279038"/>
        <path fill="#6BCEFF" d="M52.6990017,117.449838 L40.7508546,117.449838 C32.337994,117.449838 25.5184906,110.641094 25.5184906,102.241508 L25.5184906,91.4601188 C25.5184906,80.531895 34.3920515,71.6723351 45.3383581,71.6723351 L48.1114982,71.6723351 C59.0578047,71.6723351 67.9313657,80.531895 67.9313657,91.4601188 L67.9313657,102.241508 C67.9313657,110.641094 61.1118622,117.449838 52.6990017,117.449838"/>
        <path fill="#BCE9FF" d="M64.5000009,119.541963 L28.9496929,119.541963 C27.0548898,119.541963 25.5184093,118.008718 25.5184093,116.116905 C25.5184093,114.225091 27.0548898,112.691035 28.9496929,112.691035 L64.5000009,112.691035 C66.3948039,112.691035 67.9312845,114.225091 67.9312845,116.116905 C67.9312845,118.008718 66.3948039,119.541963 64.5000009,119.541963"/>
        <g transform="translate(.73 .439)">
          <g fill="#FF7A00" transform="translate(3.364 7.779)">
            <path d="M26.3405229,0.276345869 L54.2820723,0.276345869 C65.3614223,0.276345869 75.5274051,6.41897286 80.6803686,16.2270798 L86.1696219,26.6752779 C89.989021,33.9450897 87.1919088,42.9346713 79.9220971,46.7540704 C77.7891587,47.8746692 75.4158549,48.4601664 73.0064633,48.4601664 L13.7302899,48.4601664 C5.51822727,48.4601664 -1.13896483,41.8029744 -1.13896483,33.5909117 C-1.13896483,31.2706246 -0.59595684,28.9825365 0.446623317,26.909674 L8.22643216,11.4418235 C11.6695626,4.59617634 18.6777537,0.276345869 26.3405229,0.276345869 Z"/>
            <path d="M25.036548,7.04088585 L61.4140102,7.04088585 C69.1284533,7.04088585 75.8633632,12.26586 77.7807001,19.7382392 L83.7294701,42.9222011 C86.0488048,51.9612743 80.6013803,61.1690833 71.5623071,63.488418 C70.1902228,63.8404809 68.7793124,64.0186084 67.3627801,64.0186084 L19.4585076,64.0186084 C10.1266183,64.0186084 2.56162727,56.4536174 2.56162727,47.1217281 C2.56162727,45.7903328 2.71898695,44.4636034 3.03043181,43.1691478 L8.60847216,19.985186 C10.4352599,12.3925234 17.2272152,7.04088585 25.036548,7.04088585 Z"/>
          </g>
          <ellipse cx="38.989" cy="30.195" fill="#FF7A00" rx="29.29" ry="29.353"/>
          <path fill="#BCE9FF" d="M45.8532896,64.8452621 L46.2926467,64.8452621 C53.0632022,64.8452621 58.5518218,70.3338817 58.5518218,77.1044371 L58.5518218,85.9492985 C58.5518218,87.1732903 57.5595804,88.1655318 56.3355885,88.1655318 C56.0246853,88.1655318 55.7172606,88.1001173 55.4332911,87.9735389 L45.7827623,83.6718523 L36.7480645,87.8908052 C35.6390336,88.4086918 34.3201564,87.9294747 33.8022698,86.8204438 C33.6651683,86.526847 33.5941146,86.2067578 33.5941146,85.8827271 L33.5941146,77.1044371 C33.5941146,70.3338817 39.0827342,64.8452621 45.8532896,64.8452621 Z"/>
          <path fill="#FFF" d="M47.1343322,78.9590702 L51.8964332,94.8292683 L40.2495032,94.8292683 L45.0116041,78.9590702 C45.1874951,78.372895 45.8052719,78.0402939 46.391447,78.216185 C46.7481865,78.3232302 47.027287,78.6023307 47.1343322,78.9590702 Z" transform="matrix(1 0 0 -1 0 173)"/>
          <path fill="#FF9D8A" d="M46.0729682,62.6243033 L46.0729682,62.6243033 C49.5954849,62.6243033 52.4510489,65.4798673 52.4510489,69.002384 L52.4510489,75.1243723 C52.4510489,78.646889 49.5954849,81.502453 46.0729682,81.502453 L46.0729682,81.502453 C42.5504515,81.502453 39.6948874,78.646889 39.6948874,75.1243723 L39.6948874,69.002384 C39.6948874,65.4798673 42.5504515,62.6243033 46.0729682,62.6243033 Z"/>
          <g transform="translate(.101 5.568)">
            <path fill="#FF9D8A" d="M73.122543,44.8460997 C78.2664615,44.8460997 82.4364314,40.6575199 82.4364314,35.4906449 C82.4364314,30.32377 78.2664615,26.1351902 73.122543,26.1351902 C67.9786244,26.1351902 63.8086545,30.32377 63.8086545,35.4906449 C63.8086545,40.6575199 67.9786244,44.8460997 73.122543,44.8460997 Z"/>
            <g transform="translate(.777 12.871)">
              <path fill="#FFDDB4" d="M29.4686748,32.3370477 L31.8981178,29.9268515 C32.7163282,29.1156108 32.7203908,27.7965334 31.9078681,26.979614 L7.85150695,2.80707423 L0.251981653,0.553447508 L2.46041849,8.15477306 L26.5167796,32.3273128 C27.3293024,33.1442322 28.6512769,33.1482884 29.4686748,32.3370477"/>
              <path fill="#FF7BAE" d="M29.4686748,32.3370477 L31.8981178,29.9268515 C32.7163282,29.1156108 32.7203908,27.7965334 31.9078681,26.979614 L30.0016897,25.0650859 L24.6114138,30.4127847 L26.5167796,32.3273128 C27.3293024,33.1442322 28.6512769,33.1482884 29.4686748,32.3370477"/>
              <polygon fill="#FFC715" points="26.241 26.668 28.936 23.994 7.851 2.807 5.155 5.481"/>
              <polygon fill="#FFD836" points="23.546 29.342 26.241 26.669 5.156 5.481 2.46 8.154"/>
              <path fill="#EAE8E9" d="M23.3390844,29.0069046 L28.6017942,23.7857593 C28.7919246,23.5967402 29.0998707,23.5975514 29.2891885,23.7873818 L29.9408317,24.442053 C30.129337,24.6318834 30.1285245,24.9393436 29.9383942,25.1283627 L24.6756843,30.349508 C24.4847415,30.538527 24.1767953,30.5377158 23.9874775,30.3470742 L23.3366468,29.6932142 C23.147329,29.5033839 23.1489541,29.1959236 23.3390844,29.0069046"/>
              <polygon fill="#3C3C3C" points=".252 .553 2.823 1.316 .999 3.126"/>
            </g>
            <ellipse cx="19.115" cy="35.491" fill="#FF9D8A" rx="9.314" ry="9.355"/>
            <g transform="translate(17.827 .012)">
              <rect width="56.654" height="63.007" fill="#FFB5A1" rx="28.327"/>
              <path fill="#E58D7F" d="M17.6606143 21.6699888L17.6606143 21.6699888C19.3170885 21.6699888 20.6599262 23.0128264 20.6599262 24.6693006L20.6599262 30.7450048C20.6599262 32.401479 19.3170885 33.7443166 17.6606143 33.7443166L17.6606143 33.7443166C16.0041401 33.7443166 14.6613025 32.401479 14.6613025 30.7450048L14.6613025 24.6693006C14.6613025 23.0128264 16.0041401 21.6699888 17.6606143 21.6699888zM38.6963961 21.6699888L38.6963961 21.6699888C40.3528703 21.6699888 41.695708 23.0128264 41.695708 24.6693006L41.695708 30.7450048C41.695708 32.401479 40.3528703 33.7443166 38.6963961 33.7443166L38.6963961 33.7443166C37.0399219 33.7443166 35.6970843 32.401479 35.6970843 30.7450048L35.6970843 24.6693006C35.6970843 23.0128264 37.0399219 21.6699888 38.6963961 21.6699888z"/>
              <path fill="#FF9D8A" d="M26.5291719,19.501636 L30.1244964,19.501636 C31.0646716,19.501636 31.8268342,20.2637986 31.8268342,21.2039737 L31.8268342,33.8984021 C31.8268342,34.8385772 31.0646716,35.6007398 30.1244964,35.6007398 L26.5291719,35.6007398 C25.5889967,35.6007398 24.8268342,34.8385772 24.8268342,33.8984021 L24.8268342,21.2039737 C24.8268342,20.2637986 25.5889967,19.501636 26.5291719,19.501636 Z"/>
              <path stroke="#E58D7F" stroke-linecap="round" stroke-linejoin="round" stroke-width="2.5" d="M18.2424299,38.5783494 C21.0239125,40.9345803 24.6201035,42.3550464 28.5473468,42.3550464 C32.5320515,42.3550464 36.1759455,40.8927091 38.9738307,38.4743244" opacity=".587"/>
              <g fill="#E58D7F" opacity=".355" transform="translate(4.462 31.868)">
                <ellipse cx="5.366" cy="1.67" rx="1.387" ry="1.388" transform="matrix(-1 0 0 1 10.731 0)"/>
                <ellipse cx="1.483" cy="3.891" rx="1.387" ry="1.388" transform="matrix(-1 0 0 1 2.966 0)"/>
              </g>
              <g fill="#E58D7F" opacity=".355" transform="matrix(-1 0 0 1 52.27 31.868)">
                <ellipse cx="5.366" cy="1.67" rx="1.387" ry="1.388" transform="matrix(-1 0 0 1 10.731 0)"/>
                <ellipse cx="1.483" cy="3.891" rx="1.387" ry="1.388" transform="matrix(-1 0 0 1 2.966 0)"/>
              </g>
              <path fill="#FF7A00" d="M32.8993307,0.367128258 C34.828368,13.0438416 44.2965583,23.2358492 56.5753515,26.2043822 C55.6031066,13.0789786 45.6869636,2.44242454 32.8993307,0.367128258 Z"/>
            </g>
            <path fill="#FF7A00" d="M17.9991774,25.1996752 C19.5610322,11.0323761 31.5705553,0.011879788 46.1540532,0.011879788 C51.0713981,0.011879788 55.6960972,1.26484518 59.7263045,3.46893 C56.032708,17.0827497 43.6115416,27.093775 28.857217,27.093775 C25.0453847,27.093775 21.3892826,26.4255734 17.9991774,25.1996752 Z"/>
          </g>
        </g>
        <path fill="#A048BD" d="M60.9388762,108.549229 L83.9966468,108.549229 L83.9966468,79.6155175 C83.9966468,78.3199661 82.9444299,77.2694093 81.646831,77.2694093 L60.9388762,77.2694093 L60.9388762,108.549229 Z"/>
        <path fill="#FFD836" d="M69.1235803,74.7104316 L74.8697412,74.7104316 C75.9715221,74.7104316 76.8644846,75.6027964 76.8644846,76.7028388 L76.8644846,79.9851188 C76.8644846,81.0851612 75.9715221,81.977526 74.8697412,81.977526 L69.1235803,81.977526 C68.0217995,81.977526 67.1280245,81.0851612 67.1280245,79.9851188 L67.1280245,76.7028388 C67.1280245,75.6027964 68.0217995,74.7104316 69.1235803,74.7104316"/>
        <path fill="#BE56E8" d="M50.1744935,108.549229 L79.6536315,108.549229 L79.6536315,77.2694093 L54.0453519,77.2694093 C51.9076045,77.2694093 50.1744935,78.9997858 50.1744935,81.1341601 L50.1744935,108.549229 Z"/>
        <polygon fill="#FFF" fill-opacity=".1" points="50.174 100.485 79.653 100.485 79.653 85.236 50.174 85.236"/>
        <polygon fill="#FFF" fill-opacity=".1" points="79.653 100.485 83.957 100.485 83.957 85.236 79.653 85.236"/>
        <path stroke="#FFF" stroke-linecap="round" stroke-width="3.073" d="M55.6808789 89.1851564L74.8174148 89.1851564M65.2426467 96.6337253L74.8174148 96.6337253" opacity=".1"/>
        <path fill="#FFD836" d="M67.1280245,76.9741988 L74.948556,76.9741988 L74.948556,92.5654343 C74.948556,93.2923059 74.1530962,93.7392996 73.5307037,93.3636951 L71.5221475,92.1492678 C71.2247642,91.9699836 70.8518162,91.9699836 70.5544329,92.1492678 L68.5458767,93.3636951 C67.9234842,93.7392996 67.1280245,93.2923059 67.1280245,92.5654343 L67.1280245,76.9741988 Z"/>
        <path fill="#FF9D8A" d="M58.5342151,108.923941 L48.3638678,103.061104 C46.5763177,102.030017 45.9636756,99.7479973 46.9955795,97.9624565 C48.0274834,96.1777269 50.3139224,95.5660514 52.1014724,96.5971384 L62.2726323,102.459164 C64.0601823,103.490251 64.6728245,105.772271 63.6409206,107.557812 C62.6082041,109.342541 60.3225776,109.954217 58.5342151,108.923941"/>
        <path fill="#FFB5A1" d="M59.7625057,119.469259 L50.3543048,119.469259 C47.8078585,119.469259 45.7432382,117.407897 45.7432382,114.865468 L45.7432382,106.578644 C45.7432382,104.037027 47.8078585,101.975664 50.3543048,101.975664 L59.7625057,101.975664 C62.308952,101.975664 64.3735723,104.037027 64.3735723,106.578644 L64.3735723,114.865468 C64.3735723,117.407897 62.308952,119.469259 59.7625057,119.469259"/>
        <path fill="#FFB5A1" d="M57.4018834 109.253062L44.9515972 109.253062C42.9389784 109.253062 41.3074327 107.62409 41.3074327 105.614647 41.3074327 103.604392 42.9389784 101.975421 44.9515972 101.975421L57.4018834 101.975421C59.4153147 101.975421 61.0468604 103.604392 61.0468604 105.614647 61.0468604 107.62409 59.4153147 109.253062 57.4018834 109.253062M32.6576405 128.823919L21.0174395 128.823919C19.1486372 128.823919 17.6332823 127.310955 17.6332823 125.444291L17.6332823 124.925908C17.6332823 123.059243 19.1486372 121.546279 21.0174395 121.546279L32.6576405 121.546279C34.5272553 121.546279 36.0426103 123.059243 36.0426103 124.925908L36.0426103 125.444291C36.0426103 127.310955 34.5272553 128.823919 32.6576405 128.823919"/>
        <path fill="#FFB5A1" d="M36.6127575,124.181027 L22.5585514,124.181027 C20.5451201,124.181027 18.9135744,122.552055 18.9135744,120.541801 C18.9135744,118.532357 20.5451201,116.903386 22.5585514,116.903386 L36.6127575,116.903386 C38.6261889,116.903386 40.2577345,118.532357 40.2577345,120.541801 C40.2577345,122.552055 38.6261889,124.181027 36.6127575,124.181027"/>
        <path fill="#FFB5A1" d="M35.7581461 119.090978L25.2684773 119.090978C23.2558585 119.090978 21.6243128 117.462006 21.6243128 115.451752 21.6243128 113.442309 23.2558585 111.813337 25.2684773 111.813337L35.7581461 111.813337C37.7715774 111.813337 39.4031231 113.442309 39.4031231 115.451752 39.4031231 117.462006 37.7715774 119.090978 35.7581461 119.090978M59.3657509 115.451914L46.9154647 115.451914C44.9028459 115.451914 43.2704877 113.822943 43.2704877 111.813499 43.2704877 109.803245 44.9028459 108.174274 46.9154647 108.174274L59.3657509 108.174274C61.3783697 108.174274 63.0099154 109.803245 63.0099154 111.813499 63.0099154 113.822943 61.3783697 115.451914 59.3657509 115.451914"/>
        <path fill="#FFB5A1" d="M81.7479455 106.496547L58.4374803 106.496547 58.4374803 119.489378 81.7479455 119.489378C85.3409212 119.489378 88.2546277 116.58108 88.2546277 112.992962 88.2546277 109.404845 85.3409212 106.496547 81.7479455 106.496547M16.9781452 125.930424L7.46756636 115.364825C5.22094095 112.868637 5.42813426 108.991718 7.92826676 106.748637 10.4275867 104.505557 14.3114455 104.712423 16.5572584 107.2078L26.0686497 117.773399C28.3144626 120.269586 28.1072693 124.146506 25.6079493 126.389586 23.1078168 128.632667 19.2247706 128.425801 16.9781452 125.930424"/>
      </g>
    </g>
  </g>
</svg>
