<svg xmlns="http://www.w3.org/2000/svg" xmlns:xlink="http://www.w3.org/1999/xlink" width="288" height="164" viewBox="0 0 288 164">
  <defs>
    <rect id="exp_professor_male-a" width="288" height="164"/>
  </defs>
  <g fill="none" fill-rule="evenodd">
    <mask id="exp_professor_male-b" fill="#fff">
      <use xlink:href="#exp_professor_male-a"/>
    </mask>
    <use fill="#FFF" xlink:href="#exp_professor_male-a"/>
    <g mask="url(#exp_professor_male-b)">
      <g transform="translate(91.489 10)">
        <path fill="#FF931E" d="M3.57799583,133.121847 L3.51133235,133.068597 C-0.187538665,130.121585 -0.798938044,124.688499 2.1525877,120.995522 L27.3463848,89.4719764 C30.2979105,85.7787617 35.7390793,85.1682973 39.4379503,88.1153096 C43.1365832,91.0625595 43.7482207,96.4954076 40.7964569,100.188622 L15.5495671,131.77873 C12.6273257,135.435098 7.24020193,136.039619 3.57799583,133.121847"/>
        <g transform="translate(21.175 62.949)">
          <path fill="#FF931E" d="M62.1227299,97.8303813 L0.0366467096,97.8303813 L0.0366467096,31.5445948 C0.0366467096,14.4969955 14.0057416,0.548786734 31.0794502,0.548786734 C48.1531588,0.548786734 62.1227299,14.4969955 62.1227299,31.5445948 L62.1227299,97.8303813 Z" transform="translate(0 14.047)"/>
          <path fill="#FFA44A" d="M43.4067258,111.87733 L0.574009008,111.87733 L0.574009008,22.2001535 C0.574009008,10.3902343 10.1623607,0.816307421 21.9903674,0.816307421 C33.8183741,0.816307421 43.4067258,10.3902343 43.4067258,22.2001535 L43.4067258,111.87733 Z" transform="translate(9.09)"/>
          <polygon fill="#F0F0F0" points="22.182 112.037 39.977 112.037 39.977 16.055 22.182 16.055"/>
        </g>
        <g transform="translate(14.285 .102)">
          <path fill="#723A0F" d="M33.2259612,31.0795092 C33.2259612,38.3261593 27.3424326,44.2006908 20.0846839,44.2006908 C12.8266971,44.2006908 6.94316849,38.3261593 6.94316849,31.0795092 C6.94316849,23.8328591 12.8266971,17.9583276 20.0846839,17.9583276 C27.3424326,17.9583276 33.2259612,23.8328591 33.2259612,31.0795092"/>
          <path fill="#723A0F" d="M35.095991,20.1323227 C35.095991,27.3017138 29.2750784,33.113725 22.094707,33.113725 C14.9140974,33.113725 9.09342296,27.3017138 9.09342296,20.1323227 C9.09342296,12.9629315 14.9140974,7.15092034 22.094707,7.15092034 C29.2750784,7.15092034 35.095991,12.9629315 35.095991,20.1323227"/>
          <path fill="#723A0F" d="M45.9736621 12.2889721C45.9736621 18.5925878 40.8560493 23.7023747 34.5427793 23.7023747 28.2297474 23.7023747 23.1121346 18.5925878 23.1121346 12.2889721 23.1121346 5.98559415 28.2297474.875569533 34.5427793.875569533 40.8560493.875569533 45.9736621 5.98559415 45.9736621 12.2889721M70.9236613 31.7978984C70.9236613 38.5876511 65.4110673 44.0918151 58.6109158 44.0918151 51.8107643 44.0918151 46.2979323 38.5876511 46.2979323 31.7978984 46.2979323 25.0081458 51.8107643 19.5039817 58.6109158 19.5039817 65.4110673 19.5039817 70.9236613 25.0081458 70.9236613 31.7978984"/>
          <path fill="#723A0F" d="M66.4791116,15.0131221 C66.4791116,23.2396531 59.7999067,29.9088819 51.5607763,29.9088819 C43.3214078,29.9088819 36.6422028,23.2396531 36.6422028,15.0131221 C36.6422028,6.78659099 43.3214078,0.11759998 51.5607763,0.11759998 C59.7999067,0.11759998 66.4791116,6.78659099 66.4791116,15.0131221"/>
          <path fill="#FFDDB4" d="M27.8700026,57.5823657 L30.4329755,55.2824267 C31.2957915,54.5081734 31.3667404,53.1824101 30.5913013,52.3209136 L7.63501641,26.8169081 L0.111566102,24.1691851 L1.94766891,31.9200388 L24.9039538,57.424282 C25.6793929,58.2857786 27.0071867,58.3566191 27.8700026,57.5823657"/>
          <path fill="#FFB53E" d="M27.8700026,57.5823657 L30.4329755,55.2824267 C31.2957915,54.5081734 31.3667404,53.1824101 30.5913013,52.3209136 L7.63501641,26.8169081 L1.94766891,31.9200388 L24.9039538,57.424282 C25.6793929,58.2857786 27.0071867,58.3566191 27.8700026,57.5823657"/>
          <path fill="#FF7BAE" d="M27.8700026,57.5823657 L30.4329755,55.2824267 C31.2957915,54.5081734 31.3667404,53.1824101 30.5913013,52.3209136 L28.7728167,50.3007708 L23.0854692,55.4041393 L24.9039538,57.424282 C25.6793929,58.2857786 27.0071867,58.3566191 27.8700026,57.5823657"/>
          <polygon fill="#FFC715" points="24.912 51.723 27.756 49.171 7.635 26.817 4.791 29.368"/>
          <polygon fill="#FFD836" points="22.069 54.275 24.912 51.723 4.792 29.368 1.948 31.92"/>
          <path fill="#EAE8E9" d="M21.8776697,53.9270911 L27.4302617,48.9444843 C27.6312045,48.764055 27.9404755,48.7806954 28.1211811,48.9813309 L28.7423419,49.6714314 C28.9230476,49.8720669 28.9063817,50.1808649 28.7054389,50.3610565 L23.1528469,55.3436633 C22.9519041,55.5240927 22.6426332,55.50769 22.4619275,55.3070545 L21.8407667,54.6167162 C21.6602991,54.4160807 21.6767269,54.1072827 21.8776697,53.9270911"/>
          <polygon fill="#3C3C3C" points=".112 24.169 2.658 25.065 .733 26.792"/>
          <path fill="#DE8466" d="M4.93605004 44.1716176C4.93605004 48.1498583 8.16589582 51.3752405 12.1507056 51.3752405 16.1350391 51.3752405 19.365123 48.1498583 19.365123 44.1716176 19.365123 40.1931392 16.1350391 36.9679948 12.1507056 36.9679948 8.16589582 36.9679948 4.93605004 40.1931392 4.93605004 44.1716176M71.3960911 44.1716176C71.3960911 48.1498583 68.1660072 51.3752405 64.1814356 51.3752405 60.197102 51.3752405 56.9670181 48.1498583 56.9670181 44.1716176 56.9670181 40.1931392 60.197102 36.9679948 64.1814356 36.9679948 68.1660072 36.9679948 71.3960911 40.1931392 71.3960911 44.1716176M37.969949 87.7228817C33.0763731 87.7228817 29.0725167 83.725148 29.0725167 78.8390554L29.0725167 71.3565873C29.0725167 66.4704947 33.0763731 62.472761 37.969949 62.472761 42.8637629 62.472761 46.8673813 66.4704947 46.8673813 71.3565873L46.8673813 78.8390554C46.8673813 83.725148 42.8637629 87.7228817 37.969949 87.7228817"/>
          <path fill="#E59B82" d="M46.020636,76.6770415 L29.9192619,76.6770415 C19.9975928,76.6770415 11.9544054,68.6461538 11.9544054,58.739657 L11.9544054,38.2646137 C11.9544054,23.9186997 23.6019445,12.2889721 37.970068,12.2889721 C52.3379534,12.2889721 63.9854925,23.9186997 63.9854925,38.2646137 L63.9854925,58.739657 C63.9854925,68.6461538 55.9423051,76.6770415 46.020636,76.6770415"/>
          <path fill="#723A0F" d="M46.020636,76.6770415 L29.9192619,76.6770415 C19.9985451,76.6770415 11.9572624,68.6452029 11.9603575,58.739657 L11.9755949,54.5077692 L63.9854925,54.5077692 C63.9854925,55.1087249 63.9845402,55.6588085 63.9845402,58.7403701 C63.9845402,68.6471047 55.9425432,76.6770415 46.020636,76.6770415"/>
          <path fill="#B56A51" d="M30.1310852 44.4830543L22.1012305 44.4830543 22.1012305 38.5845132C22.1012305 36.3796621 23.9078109 34.5756066 26.1162769 34.5756066 28.3242667 34.5756066 30.1310852 36.3796621 30.1310852 38.5845132L30.1310852 44.4830543zM54.2308154 44.4830543L46.2009607 44.4830543 46.2009607 38.5845132C46.2009607 36.3796621 48.0075411 34.5756066 50.2160071 34.5756066 52.424235 34.5756066 54.2308154 36.3796621 54.2308154 38.5845132L54.2308154 44.4830543z"/>
          <path fill="#E59B82" d="M27.9906635 48.0357291L24.2417949 48.0357291C22.7140107 48.0357291 21.4640704 46.7877002 21.4640704 45.2622523L21.4640704 44.1304684C21.4640704 42.6050205 22.7140107 41.3569916 24.2417949 41.3569916L27.9906635 41.3569916C29.5182097 41.3569916 30.76815 42.6050205 30.76815 44.1304684L30.76815 45.2622523C30.76815 46.7877002 29.5182097 48.0357291 27.9906635 48.0357291M52.09037 48.0357291L48.3415014 48.0357291C46.8137172 48.0357291 45.5637769 46.7877002 45.5637769 45.2622523L45.5637769 44.1304684C45.5637769 42.6050205 46.8137172 41.3569916 48.3415014 41.3569916L52.09037 41.3569916C53.6181542 41.3569916 54.8680945 42.6050205 54.8680945 44.1304684L54.8680945 45.2622523C54.8680945 46.7877002 53.6181542 48.0357291 52.09037 48.0357291"/>
          <path stroke="#BBBDBF" stroke-width="2.127" d="M33.292458,39.339226 L42.6474875,39.339226"/>
        </g>
        <g transform="translate(36 53)">
          <path stroke="#723A0F" stroke-linecap="round" stroke-linejoin="round" stroke-width="6.965" d="M2.40683288,8.90539518 C6.29569482,11.9822024 11.1242738,13.6887928 16.2028408,13.6887928 C21.3411669,13.6887928 26.2221244,11.9417901 30.1324138,8.79913443 C32.2208856,7.12059499 32.5403941,4.08253606 30.8464274,2.01342301 C29.1524606,-0.055690053 26.0861785,-0.372570534 23.9981829,1.30596891 C21.8070971,3.0667594 19.0869888,4.04045966 16.2028408,4.04045966 C13.3525007,4.04045966 10.6616768,3.08934278 8.48297134,1.36563658 C6.38140501,-0.296737921 3.31774177,0.0434390998 1.63996473,2.12538903 C-0.0380503859,4.20733895 0.305504639,7.24302068 2.40683288,8.90539518 Z"/>
          <path fill="#B34930" d="M23.9980877,1.30589759 C21.8072399,3.0669258 19.0868936,4.04038835 16.2027456,4.04038835 C13.3524055,4.04038835 10.6618197,3.08927146 8.4828761,1.36580298 C6.38154786,-0.296809237 3.31788462,0.0433677838 1.64010758,2.12555543 C-0.0379075356,4.20726764 0.305647489,7.24318709 2.40673765,8.90556158 C6.29559959,11.9823688 11.1244166,13.6887215 16.2027456,13.6887215 C21.3410717,13.6887215 26.2222672,11.9417187 30.1325567,8.79906312 C32.2207903,7.12076139 32.540537,4.08246475 30.8463321,2.01335169 C29.8842352,0.838065044 28.4788261,0.228076061 27.0622271,0.228076061 C25.9844214,0.227838341 24.9001875,0.580852231 23.9980877,1.30589759 Z"/>
          <path fill="#FFF" d="M23.9980877,1.30589759 C21.8072399,3.0669258 19.0868936,4.04038835 16.2027456,4.04038835 C13.3524055,4.04038835 10.6618197,3.08927146 8.4828761,1.36580298 C7.41745078,0.522848602 6.10465632,0.194557571 4.85043049,0.347411396 C4.69591406,0.72966482 4.61068004,1.14757621 4.61068004,1.58498063 L4.61068004,3.62937083 C4.61068004,5.45529654 6.0932283,6.93557768 7.92218859,6.93557768 L24.600678,6.93557768 C26.4296383,6.93557768 27.9119484,5.45529654 27.9119484,3.62937083 L27.9119484,1.58498063 C27.9119484,1.11453316 27.8133817,0.666669075 27.6360092,0.261594552 C27.4457802,0.239248891 27.2538846,0.228076061 27.0622271,0.228076061 C25.9844214,0.227838341 24.9001875,0.580852231 23.9980877,1.30589759 Z"/>
          <path fill="#FFF" d="M5.75467303,6.39452743 C4.16879637,6.39452743 2.84338346,7.50753149 2.51911323,8.99375562 C6.38869038,12.0146987 11.1734619,13.6887215 16.2027456,13.6887215 C21.2770271,13.6887215 26.1001302,11.9852215 29.9856589,8.91625897 C29.6328187,7.46878317 28.3262144,6.39452743 26.7684316,6.39452743 L5.75467303,6.39452743 Z"/>
        </g>
        <g transform="translate(0 23.399)">
          <path fill="#DE8466" d="M55.2773131,27.4754982 L49.2326017,27.4754982 C47.9807567,27.4754982 46.9562818,26.6785002 46.9562818,25.7044328 L46.9562818,18.5045943 C46.9562818,17.5307121 47.9807567,16.7337141 49.2326017,16.7337141 L55.2773131,16.7337141 C56.5296342,16.7337141 57.5541091,17.5307121 57.5541091,18.5045943 L57.5541091,25.7044328 C57.5541091,26.6785002 56.5296342,27.4754982 55.2773131,27.4754982"/>
          <path stroke="#BBBDBF" stroke-linecap="round" stroke-linejoin="round" stroke-width="2.786" d="M73.1984574 13.6715267L83.0525107 15.3139327M21.5844932 15.3139802L31.3118859 13.6715742"/>
          <path fill="#723A0F" d="M42.7362928 5.17851169L37.5289224 5.17851169C36.1589878 5.17851169 35.038089 4.05932692 35.038089 2.69148724 35.038089 1.32364757 36.1589878.204462792 37.5289224.204462792L42.7362928.204462792C44.1062274.204462792 45.2271263 1.32364757 45.2271263 2.69148724 45.2271263 4.05932692 44.1062274 5.17851169 42.7362928 5.17851169M67.1045341 5.17851169L61.8974018 5.17851169C60.5272291 5.17851169 59.4065683 4.05932692 59.4065683 2.69148724 59.4065683 1.32364757 60.5272291.204462792 61.8974018.204462792L67.1045341.204462792C68.4747068.204462792 69.5953675 1.32364757 69.5953675 2.69148724 69.5953675 4.05932692 68.4747068 5.17851169 67.1045341 5.17851169"/>
          <path stroke="#D3D3D3" stroke-width="2.322" d="M47.5879421 16.6511541C47.5879421 21.2460399 43.857406 24.9708713 39.2554828 24.9708713 34.6537978 24.9708713 30.9232616 21.2460399 30.9232616 16.6511541 30.9232616 12.0562682 34.6537978 8.33143682 39.2554828 8.33143682 43.857406 8.33143682 47.5879421 12.0562682 47.5879421 16.6511541zM73.5867484 16.6511541C73.5867484 21.2460399 69.8562122 24.9708713 65.2545272 24.9708713 60.6526041 24.9708713 56.9220679 21.2460399 56.9220679 16.6511541 56.9220679 12.0562682 60.6526041 8.33143682 65.2545272 8.33143682 69.8562122 8.33143682 73.5867484 12.0562682 73.5867484 16.6511541z"/>
          <polygon fill="#522E17" points="9.732 96.491 41.109 96.491 41.109 69.107 9.732 69.107"/>
          <polygon fill="#FFF" points="27.775 96.491 46.665 96.491 46.665 72.527 27.775 72.527"/>
          <path fill="#FFF" d="M46.6646767,72.802827 L13.1260399,72.4952176 C11.2516056,72.4952176 9.73215437,70.9780899 9.73215437,69.1065219 C9.73215437,67.234954 11.2516056,65.7175886 13.1260399,65.7175886 L43.5229219,65.7175886 C45.2580772,65.7175886 46.6646767,67.1220371 46.6646767,68.8547767 L46.6646767,72.802827 Z"/>
          <path fill="#E3E3E3" d="M44.2512919,68.2743125 L13.1763471,68.2743125 C12.7166071,68.2743125 12.3430535,68.6468194 12.3430535,69.1063318 C12.3430535,69.5658441 12.7166071,69.938351 13.1763471,69.938351 L44.2512919,69.938351 C45.137202,69.938351 46.1176314,70.3954862 46.6647481,71.0808323 L46.6647481,69.0340649 L46.6647481,69.0335895 C45.9795427,68.5564859 45.1483919,68.2743125 44.2512919,68.2743125"/>
          <path fill="#F55" d="M19.2169396,69.9494625 L27.4067867,69.9494625 L27.4067867,64.3081806 C27.4067867,63.8518326 27.0368435,63.4818895 26.5804956,63.4818895 L20.0432307,63.4818895 C19.5868827,63.4818895 19.2169396,63.8518326 19.2169396,64.3081806 L19.2169396,69.9494625 Z"/>
          <path fill="#6A4132" d="M46.6646767,96.4908672 L13.7322015,96.4908672 L13.7322015,72.5270482 L43.2662675,72.5270482 C45.1430827,72.5270482 46.6646767,74.0463154 46.6646767,75.9202605 L46.6646767,96.4908672 Z"/>
          <path stroke="#522E17" stroke-linecap="round" stroke-width="2.99" d="M41.1241079 79.5285141L18.5982787 79.5285141M31.5028768 87.0237716L18.5982549 87.0237716"/>
          <path fill="#DE8466" d="M36.1643447,97.4615959 C35.4053333,95.7205362 36.2038666,93.6949259 37.9475929,92.9373129 L45.5331831,89.6410903 C47.2766713,88.8834773 49.3053839,89.6805518 50.0643953,91.4216115 C50.8231686,93.1626712 50.0248734,95.1882816 48.2811471,95.9458946 L40.6955569,99.2421172 C38.9520688,99.9997302 36.9233561,99.2026557 36.1643447,97.4615959"/>
          <path fill="#FF931E" d="M0.202037972,103.122085 C0.202037972,98.347958 4.11423213,94.4415086 8.89590859,94.4415086 L35.8774775,94.4415086 L35.8774775,111.80266 L8.89590859,111.80266 C4.11423213,111.80266 0.202037972,107.896211 0.202037972,103.122085"/>
          <polygon fill="#E59B82" points="35.877 111.802 47.055 111.802 47.055 94.442 35.877 94.442"/>
          <path fill="#E59B82" d="M39.0850386,97.8795787 C39.0850386,95.9809107 40.6268697,94.441675 42.5284456,94.441675 L50.8011459,94.441675 C52.7027217,94.441675 54.2443148,95.9809107 54.2443148,97.8795787 C54.2443148,99.7782466 52.7027217,101.317482 50.8011459,101.317482 L42.5284456,101.317482 C40.6268697,101.317482 39.0850386,99.7782466 39.0850386,97.8795787"/>
          <path fill="#E59B82" d="M40.6974616,103.122085 C40.6974616,101.223417 42.2390547,99.6841809 44.1406305,99.6841809 L52.4133308,99.6841809 C54.3149067,99.6841809 55.8567378,101.223417 55.8567378,103.122085 C55.8567378,105.020752 54.3149067,106.559988 52.4133308,106.559988 L44.1406305,106.559988 C42.2390547,106.559988 40.6974616,105.020752 40.6974616,103.122085"/>
          <path fill="#E59B82" d="M38.4519498,108.364567 C38.4519498,106.465899 39.9937809,104.926663 41.8953568,104.926663 L50.167819,104.926663 C52.0696329,104.926663 53.611226,106.465899 53.611226,108.364567 C53.611226,110.263235 52.0696329,111.80247 50.167819,111.80247 L41.8953568,111.80247 C39.9937809,111.80247 38.4519498,110.263235 38.4519498,108.364567"/>
          <path fill="#FFA44A" d="M28.0734453,113.4391 L34.66694,113.4391 C35.3354795,113.4391 35.8773584,112.898049 35.8773584,112.230532 L35.8773584,94.0135892 C35.8773584,93.3460721 35.3354795,92.8050218 34.66694,92.8050218 L28.0734453,92.8050218 C27.4049058,92.8050218 26.8630269,93.3460721 26.8630269,94.0135892 L26.8630269,112.230532 C26.8630269,112.898049 27.4049058,113.4391 28.0734453,113.4391"/>
        </g>
      </g>
    </g>
  </g>
</svg>
